Screens 
http://bayimg.com/PAPKiAadC
 
http://bayimg.com/PAPKHAaDC





Seeding Time 24/7

Don't Forget To Say Thanks If You Like My Post



-=Media Info=-

Format : AVI
Format/Info : Audio Video Interleave
File size : 171 MiB
Duration : 11mn 37s
Overall bit rate : 2 059 Kbps
Writing library : VirtualDub build 18160/release

Video
ID : 0
Format : MPEG-4 Visual
Format settings, BVOP : 1
Format settings, QPel : No
Format settings, GMC : No warppoints
Format settings, Matrix : Default (H.263)
Muxing mode : Packed bitstream
Codec ID : DX50
Codec ID/Hint : DivX 5
Duration : 11mn 37s
Bit rate : 2 001 Kbps
Width : 640 pixels
Height : 480 pixels
Display aspect ratio : 4:3
Frame rate : 25.000 fps
Color space : YUV
Chroma subsampling : 40
Bit depth : 8 bits
Scan type : Progressive
Compression mode : Lossy
Bits/(Pixel*Frame) : 0.261
Stream size : 166 MiB (97%)
Writing library : DivX 5.2.1 (WaffleDay) (UTC 2004-09-08)

Audio
ID : 1
Format : MPEG Audio
Format version : Version 2
Format profile : Layer 3
Mode : Joint stereo
Mode extension : Intensity Stereo + MS Stereo
Codec ID : 55
Codec ID/Hint : MP3
Duration : 11mn 37s
Bit rate mode : Constant
Bit rate : 48.0 Kbps
Channel(s) : 2 channels
Sampling rate : 24.0 KHz
Compression mode : Lossy
Stream size : 3.99 MiB (2%)
Alignment : Split accross interleaves
Interleave, duration : 40 ms (1.00 video frame)
Interleave, preload duration : 500 ms